<svg xmlns="http://www.w3.org/2000/svg" xmlns:xlink="http://www.w3.org/1999/xlink" width="1080" zoomAndPan="magnify" viewBox="0 0 810 809.999993" height="1080" preserveAspectRatio="xMidYMid meet" version="1.0"><defs><filter x="0%" y="0%" width="100%" height="100%" id="af9de4d40d"><feColorMatrix values="0 0 0 0 1 0 0 0 0 1 0 0 0 0 1 0 0 0 1 0" color-interpolation-filters="sRGB"/></filter><clipPath id="e266deb395"><path d="M 27.3125 522 L 732 522 L 732 778.839844 L 27.3125 778.839844 Z M 27.3125 522 " clip-rule="nonzero"/></clipPath><mask id="128a049a59"><g filter="url(#af9de4d40d)"><rect x="-81" width="972" fill="#000000" y="-80.999999" height="971.999992" fill-opacity="0.5"/></g></mask><clipPath id="86db59b60a"><path d="M 5 2 L 703 2 L 703 256.839844 L 5 256.839844 Z M 5 2 " clip-rule="nonzero"/></clipPath><clipPath id="4482cd3c14"><rect x="0" width="705" y="0" height="257"/></clipPath></defs><path fill="#176b87" d="M 154.648438 97.503906 C 147.375 101.703125 141.460938 111.945312 141.484375 120.253906 C 141.507812 128.664062 147.460938 132.054688 154.734375 127.855469 C 162.007812 123.65625 167.921875 113.414062 167.898438 105.003906 C 167.875 96.695312 161.921875 93.300781 154.648438 97.503906 Z M 154.648438 97.503906 " fill-opacity="1" fill-rule="nonzero"/><path fill="#176b87" d="M 110.347656 123.078125 C 103.027344 127.300781 97.117188 137.542969 97.140625 145.855469 C 97.164062 154.261719 103.113281 157.65625 110.433594 153.429688 C 117.664062 149.253906 123.578125 139.011719 123.554688 130.605469 C 123.53125 122.292969 117.578125 118.902344 110.347656 123.078125 Z M 110.347656 123.078125 " fill-opacity="1" fill-rule="nonzero"/><path fill="#176b87" d="M 66.003906 148.683594 C 58.6875 152.90625 52.777344 163.144531 52.800781 171.453125 C 52.824219 179.859375 58.773438 183.25 66.089844 179.027344 C 73.363281 174.828125 79.230469 164.613281 79.207031 156.207031 C 79.183594 147.898438 73.273438 144.484375 66.003906 148.683594 Z M 66.003906 148.683594 " fill-opacity="1" fill-rule="nonzero"/><g clip-path="url(#e266deb395)"><g mask="url(#128a049a59)"><g transform="matrix(1, 0, 0, 1, 27, 522)"><g clip-path="url(#4482cd3c14)"><g clip-path="url(#86db59b60a)"><path fill="#64ccc5" d="M 698.429688 105.808594 L 443.988281 253.664062 C 440.265625 255.835938 434.523438 257.078125 428.628906 257.078125 C 422.65625 257.078125 416.839844 255.757812 413.039062 253.585938 C 413.039062 253.585938 76.757812 59.421875 9.5 20.632812 C 4.300781 17.609375 4.378906 10.160156 9.5 7.136719 L 17.488281 2.480469 L 401.710938 224.265625 C 413.8125 231.167969 433.207031 231.167969 445.152344 224.34375 L 657.316406 101.078125 L 677.871094 89.132812 L 685.398438 84.789062 C 690.441406 87.734375 694.863281 90.21875 698.429688 92.3125 C 703.628906 95.335938 703.550781 102.785156 698.429688 105.808594 Z M 698.429688 105.808594 " fill-opacity="1" fill-rule="nonzero"/></g></g></g></g></g><path fill="#64ccc5" d="M 720 543.796875 L 486.503906 408.976562 C 484.253906 414.558594 481.382812 419.449219 477.96875 423.714844 C 480.6875 425.265625 483.324219 426.816406 486.039062 428.445312 C 489.605469 430.460938 493.175781 432.558594 496.820312 434.652344 C 538.710938 458.777344 585.023438 485.539062 622.722656 507.261719 C 625.207031 508.734375 627.6875 510.207031 630.171875 511.605469 C 632.496094 512.921875 634.824219 514.242188 636.996094 515.484375 C 641.804688 518.355469 646.539062 521.070312 650.960938 523.628906 C 652.121094 524.25 653.285156 524.871094 654.371094 525.566406 C 658.097656 527.664062 661.585938 529.679688 664.84375 531.617188 C 666.472656 532.550781 668.027344 533.402344 669.5 534.257812 C 675.007812 537.515625 680.050781 540.382812 684.472656 542.945312 C 686.644531 544.261719 688.660156 545.347656 690.523438 546.433594 C 691.375 546.976562 692.152344 547.445312 692.925781 547.832031 C 693.933594 548.453125 694.867188 548.996094 695.796875 549.539062 C 696.339844 549.847656 696.882812 550.234375 697.347656 550.703125 C 699.054688 552.484375 699.675781 555.125 699.054688 557.449219 C 698.824219 558.304688 698.433594 559.15625 697.8125 559.933594 C 697.734375 560.164062 697.582031 560.398438 697.347656 560.554688 C 696.960938 561.019531 696.417969 561.484375 695.796875 561.792969 L 463.308594 696.929688 C 462.457031 697.394531 461.523438 697.78125 460.4375 698.167969 C 457.257812 699.410156 453.378906 700.03125 449.269531 700.03125 C 443.839844 700.03125 438.5625 698.789062 435.074219 696.851562 C 435.074219 696.851562 431.425781 694.753906 420.722656 688.550781 L 416.609375 686.222656 C 402.800781 678.234375 379.605469 664.8125 342.371094 643.324219 L 309.324219 624.242188 C 255.800781 593.289062 186.449219 553.261719 134.398438 523.242188 C 129.121094 520.214844 124.15625 517.265625 119.269531 514.476562 C 116.867188 513.078125 114.539062 511.761719 112.210938 510.441406 L 99.023438 502.839844 C 92.816406 499.191406 87.234375 495.933594 82.269531 493.140625 C 78.933594 491.203125 75.984375 489.496094 73.269531 487.945312 C 71.949219 487.167969 70.710938 486.472656 69.546875 485.773438 L 66.367188 483.988281 C 65.746094 483.679688 65.203125 483.210938 64.8125 482.746094 C 62.175781 480.03125 62.175781 475.609375 64.8125 472.894531 C 65.046875 472.664062 65.203125 472.429688 65.511719 472.273438 C 65.746094 472.042969 66.054688 471.886719 66.367188 471.730469 L 213.289062 386.246094 L 265.652344 355.835938 C 263.167969 350.097656 260.917969 344.199219 258.980469 338.382812 L 41.929688 464.515625 C 29.984375 471.5 30.0625 482.671875 42.085938 489.652344 L 428.867188 712.984375 C 440.890625 719.890625 460.285156 719.96875 472.230469 712.984375 L 720.15625 568.933594 C 732.179688 561.949219 732.023438 550.703125 720 543.796875 Z M 395.664062 356.535156 C 387.363281 359.328125 378.445312 360.800781 369.210938 360.800781 C 369.136719 360.800781 369.136719 360.800781 369.058594 360.800781 C 371.617188 362.277344 374.253906 363.828125 376.96875 365.457031 C 379.140625 366.699219 381.390625 367.9375 383.71875 369.335938 C 391.242188 373.679688 399.699219 378.566406 409.242188 384.074219 C 410.480469 384.773438 411.722656 385.46875 413.042969 386.246094 C 416.222656 388.109375 419.714844 390.125 423.359375 392.21875 C 423.667969 389.582031 423.824219 386.945312 423.824219 384.152344 L 423.824219 372.824219 Z M 289.855469 320.464844 L 277.753906 327.523438 C 279.226562 333.496094 281.167969 339.46875 283.417969 345.441406 L 298.699219 336.597656 L 298.777344 336.597656 C 299.628906 336.132812 300.636719 335.667969 301.644531 335.28125 C 302.730469 334.890625 303.894531 334.503906 305.136719 334.273438 C 305.914062 334.039062 306.765625 333.882812 307.695312 333.804688 C 303.121094 328.917969 299.242188 323.566406 295.984375 317.671875 C 293.8125 318.445312 291.71875 319.378906 289.855469 320.464844 Z M 289.855469 320.464844 " fill-opacity="1" fill-rule="nonzero"/><path fill="#176b87" d="M 630.351562 242.246094 L 744.117188 307.945312 C 762.421875 318.488281 777.34375 344.257812 777.34375 365.445312 C 777.246094 375.992188 773.5625 383.355469 767.59375 386.835938 L 750.78125 396.585938 C 756.75 393.105469 760.433594 385.742188 760.53125 375.296875 C 760.53125 354.105469 745.609375 328.238281 727.304688 317.695312 L 558.953125 220.476562 C 549.703125 215.203125 541.445312 214.605469 535.375 218.1875 L 543.136719 213.609375 L 552.1875 208.339844 C 558.257812 204.855469 566.613281 205.453125 575.765625 210.726562 L 614.074219 232.847656 " fill-opacity="1" fill-rule="nonzero"/><path fill="#176b87" d="M 705.867188 148.355469 L 744.117188 170.445312 C 762.421875 180.992188 777.34375 206.757812 777.34375 227.949219 C 777.246094 238.492188 773.5625 245.855469 767.59375 249.339844 L 750.78125 259.085938 C 756.75 255.605469 760.433594 248.242188 760.53125 237.796875 C 760.53125 216.605469 745.609375 190.742188 727.304688 180.195312 L 558.953125 82.976562 C 549.703125 77.703125 541.445312 77.109375 535.375 80.6875 L 543.136719 76.113281 L 552.1875 70.839844 C 558.257812 67.355469 566.613281 67.953125 575.765625 73.226562 L 688.800781 138.503906 " fill-opacity="1" fill-rule="nonzero"/><path fill="#b0b8cf" d="M 588.421875 418.515625 C 581.65625 418.515625 576.15625 413.011719 576.15625 406.246094 C 576.15625 399.484375 581.65625 393.980469 588.421875 393.980469 C 595.300781 393.980469 600.6875 399.367188 600.6875 406.246094 C 600.6875 413.011719 595.183594 418.515625 588.421875 418.515625 Z M 588.421875 397.859375 C 583.796875 397.859375 580.035156 401.621094 580.035156 406.246094 C 580.035156 410.871094 583.796875 414.636719 588.421875 414.636719 C 593.046875 414.636719 596.808594 410.871094 596.808594 406.246094 C 596.808594 401.542969 593.125 397.859375 588.421875 397.859375 Z M 588.421875 397.859375 " fill-opacity="1" fill-rule="nonzero"/><path fill="#176b87" d="M 443.945312 78.425781 C 443.945312 79.101562 443.878906 79.773438 443.746094 80.441406 C 443.617188 81.105469 443.417969 81.75 443.160156 82.375 C 442.902344 83.003906 442.582031 83.597656 442.207031 84.160156 C 441.828125 84.726562 441.402344 85.246094 440.921875 85.726562 C 440.441406 86.207031 439.921875 86.632812 439.359375 87.011719 C 438.792969 87.386719 438.199219 87.703125 437.574219 87.964844 C 436.945312 88.222656 436.300781 88.417969 435.636719 88.550781 C 434.96875 88.683594 434.300781 88.75 433.621094 88.75 C 432.941406 88.75 432.273438 88.683594 431.605469 88.550781 C 430.941406 88.417969 430.296875 88.222656 429.671875 87.964844 C 429.042969 87.703125 428.449219 87.386719 427.886719 87.011719 C 427.320312 86.632812 426.800781 86.207031 426.320312 85.726562 C 425.839844 85.246094 425.414062 84.726562 425.035156 84.160156 C 424.660156 83.597656 424.339844 83.003906 424.082031 82.375 C 423.824219 81.75 423.625 81.105469 423.496094 80.441406 C 423.363281 79.773438 423.296875 79.101562 423.296875 78.425781 C 423.296875 77.746094 423.363281 77.074219 423.496094 76.410156 C 423.625 75.746094 423.824219 75.101562 424.082031 74.472656 C 424.339844 73.847656 424.660156 73.253906 425.035156 72.6875 C 425.414062 72.125 425.839844 71.605469 426.320312 71.125 C 426.800781 70.644531 427.320312 70.21875 427.886719 69.839844 C 428.449219 69.464844 429.042969 69.144531 429.671875 68.886719 C 430.296875 68.625 430.941406 68.429688 431.605469 68.296875 C 432.273438 68.167969 432.941406 68.101562 433.621094 68.101562 C 434.300781 68.101562 434.96875 68.167969 435.636719 68.296875 C 436.300781 68.429688 436.945312 68.625 437.574219 68.886719 C 438.199219 69.144531 438.792969 69.464844 439.359375 69.839844 C 439.921875 70.21875 440.441406 70.644531 440.921875 71.125 C 441.402344 71.605469 441.828125 72.125 442.207031 72.6875 C 442.582031 73.253906 442.902344 73.847656 443.160156 74.472656 C 443.417969 75.101562 443.617188 75.746094 443.746094 76.410156 C 443.878906 77.074219 443.945312 77.746094 443.945312 78.425781 Z M 443.945312 78.425781 " fill-opacity="1" fill-rule="nonzero"/><path fill="#64ccc5" d="M 435.691406 575.058594 C 399.390625 596.160156 340.355469 596.082031 303.816406 575.058594 C 282.097656 562.492188 273.253906 545.269531 277.289062 528.980469 C 280.234375 540.074219 289.078125 550.703125 303.816406 559.234375 C 340.277344 580.335938 399.390625 580.335938 435.617188 559.234375 C 450.277344 550.703125 458.964844 539.996094 461.679688 528.902344 C 466.023438 545.195312 457.335938 562.492188 435.691406 575.058594 Z M 435.691406 575.058594 " fill-opacity="1" fill-rule="nonzero"/><path fill="#64ccc5" d="M 424.132812 526.265625 C 394.191406 542.945312 345.476562 542.867188 315.300781 526.265625 C 285.199219 509.664062 285.046875 482.746094 314.988281 466.148438 C 324.6875 460.792969 336.398438 457.148438 348.886719 455.285156 C 349.199219 455.441406 349.429688 455.597656 349.742188 455.75 L 349.742188 496.246094 C 349.742188 499.191406 351.679688 502.140625 355.558594 504.390625 C 363.316406 508.890625 375.882812 508.890625 383.5625 504.46875 C 387.363281 502.21875 389.304688 499.269531 389.304688 496.398438 L 389.304688 468.550781 C 399.699219 469.25 409.164062 467.308594 417.230469 463.042969 C 419.480469 463.972656 421.652344 464.984375 423.746094 466.148438 C 453.921875 482.746094 454.15625 509.664062 424.132812 526.265625 Z M 424.132812 526.265625 " fill-opacity="1" fill-rule="nonzero"/><path fill="#64ccc5" d="M 436.3125 284.390625 C 435.847656 284.160156 435.382812 283.847656 434.839844 283.695312 C 435.382812 283.925781 435.847656 284.160156 436.3125 284.46875 C 437.089844 284.933594 437.863281 285.476562 438.640625 286.019531 C 437.863281 285.398438 437.089844 284.859375 436.3125 284.390625 Z M 436.3125 284.390625 " fill-opacity="1" fill-rule="nonzero"/><path fill="#2f2f2f" d="M 604.371094 462.671875 L 615.003906 456.535156 C 615.933594 456 616.25 454.8125 615.714844 453.886719 C 615.179688 452.953125 613.988281 452.640625 613.066406 453.175781 L 602.429688 459.316406 C 601.503906 459.851562 601.183594 461.035156 601.722656 461.964844 C 602.253906 462.890625 603.441406 463.210938 604.371094 462.671875 Z M 604.371094 462.671875 " fill-opacity="1" fill-rule="nonzero"/><path fill="#2f2f2f" d="M 624.933594 450.800781 L 635.570312 444.664062 C 636.496094 444.128906 636.816406 442.941406 636.277344 442.015625 C 635.742188 441.085938 634.550781 440.765625 633.628906 441.304688 L 622.992188 447.445312 C 622.066406 447.980469 621.746094 449.167969 622.285156 450.09375 C 622.816406 451.019531 624.007812 451.339844 624.933594 450.800781 Z M 624.933594 450.800781 " fill-opacity="1" fill-rule="nonzero"/><path fill="#2f2f2f" d="M 642.847656 438.21875 C 643.378906 439.144531 644.566406 439.464844 645.492188 438.929688 L 650.53125 436.019531 C 651.132812 435.671875 651.503906 435.027344 651.5 434.328125 L 651.464844 428.511719 C 651.460938 427.445312 650.589844 426.582031 649.527344 426.582031 C 648.632812 426.625 647.582031 427.457031 647.589844 428.535156 L 647.613281 433.222656 L 643.554688 435.570312 C 642.625 436.105469 642.308594 437.292969 642.847656 438.21875 Z M 642.847656 438.21875 " fill-opacity="1" fill-rule="nonzero"/><path fill="#2f2f2f" d="M 649.253906 384.445312 C 649.25 384.445312 649.246094 384.445312 649.242188 384.445312 C 648.171875 384.453125 647.308594 385.324219 647.316406 386.394531 L 647.382812 397.292969 C 647.390625 398.359375 648.257812 399.21875 649.324219 399.21875 C 649.328125 399.21875 649.332031 399.21875 649.335938 399.21875 C 650.40625 399.214844 651.269531 398.34375 651.261719 397.269531 L 651.195312 386.371094 C 651.1875 385.304688 650.320312 384.445312 649.253906 384.445312 Z M 649.253906 384.445312 " fill-opacity="1" fill-rule="nonzero"/><path fill="#2f2f2f" d="M 647.453125 407.464844 L 647.519531 418.363281 C 647.527344 419.433594 648.394531 420.292969 649.460938 420.292969 C 649.464844 420.292969 649.46875 420.292969 649.46875 420.292969 C 650.542969 420.285156 651.40625 419.414062 651.398438 418.339844 L 651.332031 407.445312 C 651.324219 406.371094 650.355469 405.335938 649.378906 405.515625 C 648.308594 405.523438 647.445312 406.394531 647.453125 407.464844 Z M 647.453125 407.464844 " fill-opacity="1" fill-rule="nonzero"/><path fill="#2f2f2f" d="M 649.121094 363.375 C 649.117188 363.375 649.113281 363.375 649.109375 363.375 C 648.039062 363.378906 647.175781 364.253906 647.183594 365.324219 L 647.25 376.222656 C 647.257812 377.289062 648.125 378.148438 649.191406 378.148438 C 649.195312 378.148438 649.199219 378.148438 649.203125 378.148438 C 650.273438 378.140625 651.136719 377.269531 651.128906 376.199219 L 651.0625 365.300781 C 651.054688 364.234375 650.1875 363.375 649.121094 363.375 Z M 649.121094 363.375 " fill-opacity="1" fill-rule="nonzero"/><path fill="#2f2f2f" d="M 127.449219 381.246094 C 126.53125 380.71875 125.339844 381.03125 124.800781 381.957031 C 124.261719 382.878906 124.582031 384.070312 125.507812 384.605469 L 137.390625 391.476562 C 138.296875 392.007812 139.496094 391.703125 140.039062 390.765625 C 140.578125 389.84375 140.257812 388.652344 139.332031 388.117188 Z M 127.449219 381.246094 " fill-opacity="1" fill-rule="nonzero"/><path fill="#2f2f2f" d="M 108.410156 373.59375 C 108.40625 374.285156 108.777344 374.929688 109.378906 375.277344 L 114.417969 378.191406 C 115.324219 378.722656 116.523438 378.421875 117.066406 377.484375 C 117.605469 376.554688 117.285156 375.367188 116.355469 374.835938 L 112.292969 372.484375 L 112.316406 367.789062 C 112.320312 366.722656 111.457031 365.847656 110.382812 365.84375 C 110.382812 365.84375 110.378906 365.84375 110.375 365.84375 C 109.308594 365.84375 108.441406 366.707031 108.4375 367.773438 Z M 108.410156 373.59375 " fill-opacity="1" fill-rule="nonzero"/><path fill="#2f2f2f" d="M 108.695312 309.464844 C 108.691406 310.542969 109.363281 311.394531 110.632812 311.414062 C 111.703125 311.414062 112.570312 310.550781 112.574219 309.480469 L 112.625 297.328125 C 112.628906 296.257812 111.765625 295.386719 110.695312 295.382812 C 110.691406 295.382812 110.691406 295.382812 110.6875 295.382812 C 109.617188 295.382812 108.75 296.246094 108.746094 297.316406 Z M 108.695312 309.464844 " fill-opacity="1" fill-rule="nonzero"/><path fill="#2f2f2f" d="M 108.796875 285.976562 C 108.792969 287.050781 109.65625 287.921875 110.730469 287.925781 C 110.734375 287.925781 110.734375 287.925781 110.734375 287.925781 C 111.804688 287.925781 112.671875 287.0625 112.675781 285.992188 L 112.730469 273.84375 C 112.734375 272.773438 111.867188 271.902344 110.796875 271.898438 C 110.792969 271.898438 110.792969 271.898438 110.789062 271.898438 C 109.722656 271.898438 108.855469 272.761719 108.851562 273.832031 Z M 108.796875 285.976562 " fill-opacity="1" fill-rule="nonzero"/><path fill="#2f2f2f" d="M 108.589844 332.949219 C 108.585938 334.027344 109.363281 335.058594 110.527344 334.898438 C 111.597656 334.898438 112.464844 334.035156 112.46875 332.964844 L 112.519531 320.816406 C 112.523438 319.738281 111.515625 318.921875 110.582031 318.871094 C 109.511719 318.871094 108.644531 319.734375 108.640625 320.800781 Z M 108.589844 332.949219 " fill-opacity="1" fill-rule="nonzero"/><path fill="#2f2f2f" d="M 110.832031 264.4375 C 110.835938 264.4375 110.835938 264.4375 110.839844 264.4375 C 111.90625 264.4375 112.773438 263.574219 112.777344 262.503906 L 112.832031 250.359375 C 112.835938 249.285156 111.972656 248.414062 110.898438 248.410156 C 110.894531 248.410156 110.894531 248.410156 110.890625 248.410156 C 109.824219 248.410156 108.957031 249.273438 108.953125 250.34375 L 108.898438 262.488281 C 108.894531 263.5625 109.757812 264.433594 110.832031 264.4375 Z M 110.832031 264.4375 " fill-opacity="1" fill-rule="nonzero"/><path fill="#2f2f2f" d="M 108.488281 356.4375 C 108.484375 357.511719 109.347656 358.382812 110.417969 358.386719 C 110.421875 358.386719 110.421875 358.386719 110.425781 358.386719 C 111.492188 358.386719 112.359375 357.519531 112.363281 356.453125 L 112.417969 344.304688 C 112.421875 343.234375 111.558594 342.363281 110.484375 342.359375 C 110.484375 342.359375 110.484375 342.359375 110.480469 342.359375 C 109.410156 342.359375 108.542969 343.222656 108.539062 344.289062 Z M 108.488281 356.4375 " fill-opacity="1" fill-rule="nonzero"/><path fill="#2f2f2f" d="M 39.089844 243.121094 L 81.511719 218.617188 C 82.40625 218.117188 82.984375 218.152344 83.007812 218.167969 L 105.960938 235.449219 C 106.84375 235.988281 107.898438 236.078125 109.019531 235.921875 L 109.003906 239.003906 C 109 240.074219 109.863281 240.949219 110.9375 240.953125 C 110.9375 240.953125 110.941406 240.953125 110.945312 240.953125 C 112.011719 240.953125 112.878906 240.089844 112.882812 239.019531 L 112.90625 234.046875 C 114.078125 233.074219 115.160156 231.898438 115.96875 230.414062 L 138.492188 187.226562 C 139.332031 185.800781 140.460938 184.578125 141.464844 184.023438 L 183.84375 159.574219 C 187.34375 157.546875 189.984375 152.957031 189.984375 148.890625 L 189.683594 38.046875 C 189.683594 33.289062 185.691406 31.019531 181.527344 33.445312 L 153.5625 49.59375 C 152.632812 50.128906 152.316406 51.3125 152.851562 52.242188 C 153.378906 53.171875 154.5625 53.476562 155.5 52.949219 L 183.46875 36.800781 C 185.132812 35.832031 185.804688 36.394531 185.804688 38.050781 L 186.105469 148.894531 C 186.105469 151.542969 184.175781 154.894531 181.902344 156.214844 L 139.558594 180.648438 C 137.964844 181.53125 136.359375 183.207031 135.101562 185.34375 L 112.542969 228.59375 C 111.800781 229.957031 110.75 231.109375 109.703125 231.726562 C 108.785156 232.230469 108.164062 232.226562 108.136719 232.246094 L 85.25 215.007812 C 83.746094 214 81.691406 214.070312 79.601562 215.242188 L 37.148438 239.761719 C 35.550781 240.699219 34.886719 240.15625 34.886719 238.441406 L 34.585938 127.597656 C 34.585938 124.957031 36.503906 121.636719 38.792969 120.347656 L 134.835938 64.882812 C 135.761719 64.347656 136.082031 63.164062 135.542969 62.234375 C 135.007812 61.304688 133.816406 60.976562 132.894531 61.527344 L 36.867188 116.980469 C 33.355469 118.964844 30.707031 123.527344 30.707031 127.601562 L 31.007812 238.445312 C 31.007812 243.261719 34.976562 245.507812 39.089844 243.121094 Z M 39.089844 243.121094 " fill-opacity="1" fill-rule="nonzero"/><path fill="#2f2f2f" d="M 155.703125 129.53125 C 163.660156 124.941406 169.867188 114.160156 169.835938 105 C 169.8125 95.335938 162.382812 90.796875 153.679688 95.824219 C 145.855469 100.339844 139.515625 111.300781 139.546875 120.257812 C 139.570312 130.085938 147.054688 134.53125 155.703125 129.53125 Z M 155.617188 99.179688 C 161.558594 95.753906 165.941406 98.144531 165.957031 105.007812 C 165.980469 112.648438 160.398438 122.34375 153.765625 126.175781 C 147.78125 129.632812 143.441406 127.160156 143.425781 120.246094 C 143.402344 112.65625 148.984375 103.007812 155.617188 99.179688 Z M 155.617188 99.179688 " fill-opacity="1" fill-rule="nonzero"/><path fill="#2f2f2f" d="M 109.375 121.398438 C 101.535156 125.929688 95.175781 136.898438 95.199219 145.859375 C 95.230469 155.746094 102.769531 160.105469 111.402344 155.105469 C 119.199219 150.609375 125.515625 139.613281 125.492188 130.601562 C 125.46875 120.894531 118.011719 116.414062 109.375 121.398438 Z M 109.464844 151.75 C 103.457031 155.21875 99.101562 152.777344 99.078125 145.847656 C 99.058594 138.257812 104.660156 128.601562 111.316406 124.753906 C 117.261719 121.335938 121.597656 123.792969 121.613281 130.605469 C 121.632812 138.253906 116.070312 147.9375 109.464844 151.75 Z M 109.464844 151.75 " fill-opacity="1" fill-rule="nonzero"/><path fill="#2f2f2f" d="M 65.03125 147.003906 C 57.191406 151.53125 50.835938 162.5 50.859375 171.457031 C 50.882812 181.285156 58.367188 185.722656 67.058594 180.703125 C 74.984375 176.128906 81.171875 165.367188 81.144531 156.203125 C 81.113281 146.382812 73.613281 142.054688 65.03125 147.003906 Z M 65.121094 177.347656 C 59.125 180.804688 54.753906 178.390625 54.738281 171.449219 C 54.71875 163.859375 60.320312 154.207031 66.972656 150.359375 C 72.890625 146.941406 77.242188 149.335938 77.269531 156.210938 C 77.289062 163.984375 71.839844 173.464844 65.121094 177.347656 Z M 65.121094 177.347656 " fill-opacity="1" fill-rule="nonzero"/><path fill="#2f2f2f" d="M 720.964844 542.117188 L 720.96875 542.121094 L 593.871094 468.734375 L 594.441406 468.402344 C 595.371094 467.871094 595.6875 466.683594 595.148438 465.757812 C 594.609375 464.828125 593.40625 464.5 592.503906 465.046875 L 589.996094 466.496094 L 488.863281 408.097656 C 492.894531 397.765625 495.039062 385.714844 495.117188 372.128906 L 495.269531 317.492188 C 496.285156 314.855469 496.902344 312.136719 496.894531 309.558594 C 496.890625 307.09375 496.289062 305.039062 495.273438 303.40625 L 495.347656 279.429688 C 495.347656 270.824219 489.523438 260.847656 482.171875 256.757812 C 478.429688 254.433594 474.5625 254.121094 471.566406 255.871094 L 454.855469 265.570312 L 454.855469 173.773438 C 454.855469 126.441406 416.558594 88.132812 369.214844 88.132812 C 326.101562 88.132812 289.796875 120.089844 284.292969 162.625 L 272.472656 169.511719 L 261.964844 163.40625 C 259.222656 161.816406 255.734375 162.09375 252.105469 164.1875 C 245.351562 168.117188 240.054688 177.308594 240.054688 185.097656 C 240.054688 189.210938 241.554688 192.34375 244.277344 193.914062 L 247.71875 195.90625 L 247.5 283.453125 C 247.421875 300.582031 250.554688 318.753906 256.6875 337.46875 L 154.472656 396.875 L 150.421875 394.53125 C 149.511719 394 148.316406 394.316406 147.773438 395.238281 C 147.234375 396.167969 147.554688 397.351562 148.480469 397.886719 L 150.609375 399.117188 L 40.953125 462.84375 C 35.660156 465.933594 31.070312 470.871094 31.035156 476.996094 C 31.03125 477.777344 30.910156 512.492188 30.917969 510.285156 C 30.917969 515.785156 34.480469 520.898438 40.964844 524.691406 L 427.75 747.949219 C 440.421875 755.175781 460.355469 755.316406 473.128906 748.019531 L 685.289062 624.753906 C 686.214844 624.21875 686.53125 623.027344 685.992188 622.105469 C 685.453125 621.167969 684.261719 620.863281 683.339844 621.398438 L 471.191406 744.65625 C 466.785156 747.175781 461.292969 748.691406 455.558594 749.253906 L 455.558594 719.816406 C 461.171875 719.3125 468.074219 717.675781 473.203125 714.742188 L 721.117188 570.617188 C 721.121094 570.613281 721.125 570.613281 721.128906 570.609375 C 723.609375 569.1875 726.21875 566.894531 727.09375 565.921875 L 726.980469 589.722656 C 726.980469 593.738281 724.175781 597.605469 719.097656 600.613281 L 703.90625 609.453125 C 702.976562 609.988281 702.660156 611.171875 703.195312 612.101562 C 703.726562 613.023438 704.914062 613.34375 705.84375 612.808594 L 721.066406 603.957031 C 727.382812 600.21875 730.859375 595.160156 730.859375 589.730469 C 730.902344 581.394531 730.992188 564.726562 731.035156 556.394531 C 731.019531 550.90625 727.445312 545.835938 720.964844 542.117188 Z M 482.84375 301.515625 C 476.054688 305.421875 470.738281 314.609375 470.738281 322.457031 C 470.746094 323.121094 470.792969 323.757812 470.875 324.363281 L 467.503906 322.402344 C 466.054688 321.558594 465.222656 319.574219 465.222656 316.953125 C 465.222656 310.507812 469.765625 302.632812 475.332031 299.40625 C 477.128906 298.375 479.558594 297.613281 481.324219 298.640625 L 484.695312 300.59375 C 484.085938 300.847656 483.464844 301.15625 482.84375 301.515625 Z M 474.636719 322.414062 C 474.617188 315.988281 479.164062 308.128906 484.773438 304.886719 C 489.574219 302.125 493 303.957031 493.015625 309.566406 C 493.03125 315.886719 488.402344 323.90625 482.90625 327.078125 C 478.125 329.816406 474.652344 328.078125 474.636719 322.414062 Z M 473.519531 259.226562 C 475.25 258.21875 477.65625 258.523438 480.207031 260.101562 C 486.3125 263.496094 491.46875 272.347656 491.46875 279.421875 L 491.402344 300.003906 L 483.265625 295.285156 C 480.535156 293.695312 477.03125 293.96875 473.394531 296.042969 C 466.640625 299.957031 461.34375 309.144531 461.34375 316.953125 C 461.34375 321 462.882812 324.207031 465.554688 325.753906 C 466.332031 326.207031 475.726562 331.683594 474.949219 331.230469 L 474.953125 331.230469 C 474.957031 331.234375 474.957031 331.234375 474.960938 331.234375 C 477.851562 332.386719 480.347656 333.035156 484.847656 330.433594 C 487.277344 329.03125 489.5 326.9375 491.371094 324.488281 L 491.238281 372.117188 C 491.105469 396.078125 483.96875 422.238281 463.109375 434.21875 L 435.113281 450.542969 C 445.855469 436.566406 450.121094 415.914062 450.121094 398.269531 L 450.429688 305.574219 C 450.429688 305.570312 450.429688 305.570312 450.429688 305.566406 C 450.429688 296.816406 443.890625 285.339844 435.050781 281.699219 C 435.011719 281.6875 434.972656 281.660156 434.933594 281.648438 C 441.210938 278.003906 475.53125 258.054688 473.519531 259.226562 Z M 694.832031 551.21875 C 698.378906 553.257812 697.613281 558.699219 694.824219 560.117188 L 462.378906 695.148438 C 454.6875 699.351562 442.058594 698.503906 436.039062 695.167969 C 219.710938 570.164062 68.71875 482.976562 67.234375 482.175781 C 64.242188 480.691406 63.820312 475.683594 67.042969 473.566406 L 264.804688 358.570312 C 280.230469 393.613281 304.015625 424.589844 330.722656 445.203125 C 320.378906 447.847656 310.875 451.566406 302.535156 456.402344 C 284.496094 466.886719 274.542969 480.917969 274.453125 495.914062 C 274.453125 495.949219 274.417969 495.96875 274.417969 496.003906 C 274.628906 520.023438 273.621094 521.671875 275.414062 529.476562 C 278.609375 541.5 288.09375 552.371094 302.847656 560.914062 C 339.910156 582.363281 399.910156 582.28125 436.59375 560.910156 C 451.476562 552.246094 464.628906 538.535156 464.628906 521.386719 C 464.652344 513.867188 464.714844 495.210938 464.714844 496.363281 C 464.691406 478.15625 450.515625 464.117188 434.449219 455.417969 L 465.050781 437.574219 C 470.023438 434.722656 474.429688 430.808594 478.320312 426.164062 C 533.507812 458.074219 664.78125 533.691406 694.832031 551.21875 Z M 351.679688 458.898438 C 364.121094 465.476562 376.101562 469.308594 387.363281 470.257812 L 387.363281 496.398438 C 387.363281 498.664062 385.617188 500.996094 382.597656 502.785156 C 375.539062 506.851562 363.609375 506.816406 356.53125 502.714844 C 353.402344 500.898438 351.679688 498.601562 351.679688 496.246094 Z M 354.585938 506.070312 C 362.824219 510.847656 376.253906 510.90625 384.554688 506.136719 C 388.804688 503.621094 391.242188 500.070312 391.242188 496.398438 L 391.242188 470.558594 C 408.386719 471.160156 416.726562 465.753906 430.484375 457.726562 C 469.332031 477.621094 471.035156 511.453125 434.71875 532.730469 C 398.304688 553.910156 339.789062 552.871094 304.789062 532.726562 C 290.976562 524.777344 278.332031 512.023438 278.316406 496.140625 C 278.304688 482.496094 287.59375 469.570312 304.480469 459.757812 C 313.277344 454.65625 323.390625 450.792969 334.527344 448.21875 C 341.777344 453.488281 346.332031 455.984375 347.800781 456.890625 L 347.800781 496.246094 C 347.800781 500.042969 350.210938 503.53125 354.585938 506.070312 Z M 278.246094 511.871094 C 278.863281 512.648438 283.53125 524.960938 302.851562 536.089844 C 352.519531 564.671875 440.089844 553.582031 460.777344 512.425781 C 459.546875 516.066406 467.648438 538.347656 434.640625 557.5625 C 398.960938 578.335938 340.710938 578.347656 304.792969 557.558594 C 290.945312 549.542969 282.085938 539.488281 279.179688 528.550781 C 277.699219 522.0625 278.410156 519.667969 278.246094 511.871094 Z M 417.980469 408.339844 C 392.390625 403.605469 368.824219 382.050781 353.480469 361.125 C 358.265625 362.039062 363.164062 362.628906 368.285156 362.683594 C 369.390625 363.324219 420.035156 392.542969 421.25 393.242188 C 420.660156 398.871094 419.550781 403.90625 417.980469 408.339844 Z M 395.445312 358.648438 L 421.886719 373.945312 C 421.75 384.832031 422.148438 381.386719 421.605469 388.972656 C 420.828125 388.523438 377.835938 363.710938 375.792969 362.496094 C 380.464844 361.976562 387.515625 361.21875 395.445312 358.648438 Z M 426.464844 282.1875 C 423.730469 283.914062 422.117188 287.175781 422.117188 291.445312 L 422.105469 294.878906 L 420.683594 294.039062 C 419.226562 293.199219 418.394531 291.207031 418.394531 288.578125 C 418.394531 282.105469 422.9375 274.230469 428.515625 271.023438 C 430.828125 269.699219 432.980469 269.433594 434.460938 270.226562 L 440.542969 273.878906 C 434.738281 277.296875 427.433594 281.375 426.464844 282.1875 Z M 400.128906 356.882812 C 408.074219 353.804688 415.390625 349.621094 421.984375 344.386719 L 421.921875 369.488281 Z M 369.214844 92.011719 C 391.054688 92.011719 411.585938 100.511719 427.03125 115.957031 C 455.117188 144.042969 450.523438 176.84375 450.96875 179.347656 C 450.410156 191.066406 442.246094 202.046875 427.699219 210.5 C 401.332031 225.832031 360.167969 228.785156 327.601562 217.664062 C 326.339844 217.238281 325.035156 218.179688 325.035156 219.503906 L 325.035156 225.539062 C 325.035156 226.371094 325.5625 227.109375 326.351562 227.378906 C 360.898438 239.160156 403.207031 235.261719 429.648438 219.894531 C 439.726562 214.039062 446.902344 206.957031 450.976562 199.21875 C 450.976562 200 450.96875 212.078125 450.96875 211.296875 C 450.410156 223.015625 442.246094 234 427.699219 242.453125 C 401.332031 257.777344 360.167969 260.734375 327.601562 249.617188 C 326.375 249.195312 325.035156 250.109375 325.035156 251.457031 L 325.035156 257.492188 C 325.035156 258.324219 325.5625 259.0625 326.351562 259.332031 C 360.898438 271.113281 403.207031 267.214844 429.648438 251.851562 C 439.726562 245.992188 446.902344 238.910156 450.976562 231.171875 L 450.976562 267.824219 L 444.375 271.65625 L 436.378906 266.855469 C 433.578125 265.355469 430.105469 265.640625 426.582031 267.660156 C 419.8125 271.550781 414.515625 280.738281 414.515625 288.578125 C 414.515625 292.695312 416.015625 295.820312 418.726562 297.386719 L 422.09375 299.371094 L 421.964844 339.515625 C 383.550781 372.4375 322.863281 362.304688 297.679688 316.730469 C 296.570312 313.957031 287.371094 299.640625 287.371094 277.023438 L 287.371094 230.59375 C 291.011719 237.5625 297.121094 244.042969 305.59375 249.570312 C 306.886719 250.40625 308.59375 249.480469 308.59375 247.945312 L 308.59375 241.902344 C 308.59375 241.246094 308.265625 240.636719 307.714844 240.277344 C 294.9375 231.949219 287.792969 221.476562 287.394531 210.605469 C 287.390625 209.824219 287.371094 197.855469 287.371094 198.636719 C 291.011719 205.609375 297.121094 212.089844 305.59375 217.617188 C 306.886719 218.453125 308.59375 217.53125 308.59375 215.992188 L 308.59375 209.949219 C 308.59375 209.292969 308.265625 208.683594 307.714844 208.324219 C 288.320312 195.679688 285.730469 182.953125 287.980469 164.070312 C 292.808594 122.988281 327.730469 92.011719 369.214844 92.011719 Z M 246.222656 190.550781 C 244.742188 189.703125 243.933594 187.769531 243.933594 185.097656 C 243.933594 178.777344 248.570312 170.730469 254.050781 167.542969 C 256.386719 166.195312 258.566406 165.910156 260.023438 166.761719 L 268.617188 171.757812 C 267.835938 172.214844 251.65625 181.675781 252.6875 181.070312 C 249.550781 182.660156 247.730469 186.160156 247.730469 190.757812 L 247.730469 191.425781 Z M 251.609375 190.761719 C 251.609375 182.441406 258.421875 182.234375 264.214844 187.953125 C 264.746094 188.730469 272.167969 195.109375 272.167969 204.875 L 271.9375 298.199219 C 271.9375 370.1875 350.132812 463.417969 402.609375 434.160156 C 417.203125 425.691406 423.753906 409.492188 425.285156 392.449219 C 426.101562 385.558594 425.609375 389.742188 425.996094 291.449219 C 425.996094 285.152344 430.226562 282.855469 435.894531 286.519531 C 441.484375 290.125 446.476562 298.609375 446.476562 305.5625 C 446.453125 313.878906 446.300781 375.09375 446.242188 398.269531 C 446.242188 457.546875 405.5625 484.789062 350.277344 453.835938 C 349.503906 453.160156 298.519531 427.472656 267.433594 355.066406 C 257.851562 332.941406 251.273438 307.820312 251.378906 283.460938 Z M 42.90625 466.195312 C 112.898438 425.519531 197.261719 376.492188 257.90625 341.25 C 259.515625 345.898438 261.289062 350.515625 263.195312 355.019531 L 65.5 469.917969 C 59.359375 472.996094 59.460938 482.761719 65.414062 485.675781 C 106.402344 509.238281 433.347656 698.09375 434.128906 698.546875 C 442.058594 702.953125 456.078125 703.089844 464.28125 698.605469 C 465.0625 698.152344 715.230469 552.808594 698.6875 561.96875 C 702.589844 558.722656 701.847656 550.308594 696.792969 547.792969 C 691.910156 544.914062 524.414062 448.355469 480.859375 423.136719 C 483.261719 419.875 485.574219 415.949219 487.433594 411.75 L 586.640625 469.035156 C 586.464844 469.542969 586.464844 470.105469 586.757812 470.609375 C 587.300781 471.546875 588.496094 471.851562 589.402344 471.316406 L 590 470.972656 L 719.027344 545.476562 C 719.027344 545.480469 719.03125 545.480469 719.03125 545.480469 C 729.804688 551.660156 729.828125 561.074219 719.179688 567.253906 L 471.253906 711.308594 C 460.175781 717.78125 441.191406 717.824219 429.835938 711.230469 C 288.128906 629.4375 49.269531 491.625 42.742188 487.753906 C 32.128906 481.378906 32.550781 472.246094 42.90625 466.195312 Z M 42.90625 466.195312 " fill-opacity="1" fill-rule="nonzero"/><path fill="#2f2f2f" d="M 633.675781 631.957031 C 631.570312 633.160156 629.914062 636.167969 629.914062 638.648438 C 629.914062 641.054688 631.570312 642.03125 633.75 640.828125 C 635.855469 639.625 637.585938 636.617188 637.585938 634.136719 C 637.585938 631.730469 635.855469 630.753906 633.675781 631.957031 Z M 633.675781 631.957031 " fill-opacity="1" fill-rule="nonzero"/><path fill="#2f2f2f" d="M 583.382812 661.050781 C 581.277344 662.253906 579.546875 665.183594 579.546875 667.667969 C 579.546875 670.148438 581.277344 671.125 583.382812 669.847656 C 585.488281 668.644531 587.214844 665.636719 587.214844 663.230469 C 587.214844 660.75 585.488281 659.773438 583.382812 661.050781 Z M 583.382812 661.050781 " fill-opacity="1" fill-rule="nonzero"/><path fill="#2f2f2f" d="M 545.875 616.765625 C 552.273438 620.488281 562.355469 620.5 568.816406 616.765625 C 575.933594 612.65625 575.988281 605.359375 568.90625 601.238281 C 562.480469 597.503906 552.386719 597.5 545.933594 601.238281 C 538.800781 605.355469 538.777344 612.640625 545.875 616.765625 Z M 545.875 616.765625 " fill-opacity="1" fill-rule="nonzero"/><path fill="#2f2f2f" d="M 634.558594 535.691406 C 635.484375 536.226562 636.675781 535.910156 637.207031 534.980469 C 637.742188 534.054688 637.425781 532.867188 636.496094 532.335938 L 624.851562 525.609375 C 623.925781 525.074219 622.738281 525.390625 622.203125 526.320312 C 621.664062 527.246094 621.984375 528.433594 622.910156 528.96875 Z M 634.558594 535.691406 " fill-opacity="1" fill-rule="nonzero"/><path fill="#2f2f2f" d="M 668.179688 555.105469 L 652.222656 564.375 C 651.296875 564.914062 650.980469 566.101562 651.519531 567.027344 C 652.058594 567.957031 653.25 568.265625 654.171875 567.730469 L 673.019531 556.777344 C 674.304688 556.027344 674.308594 554.164062 673.015625 553.421875 L 646.96875 538.382812 C 646.046875 537.851562 644.851562 538.167969 644.320312 539.089844 C 643.78125 540.019531 644.097656 541.207031 645.027344 541.738281 Z M 668.179688 555.105469 " fill-opacity="1" fill-rule="nonzero"/><path fill="#2f2f2f" d="M 615.183594 652.265625 L 619.632812 638.675781 L 595.273438 652.742188 L 599.828125 661.132812 Z M 615.183594 652.265625 " fill-opacity="1" fill-rule="nonzero"/><path fill="#2f2f2f" d="M 745.085938 306.265625 L 631.324219 240.570312 C 630.40625 240.039062 629.210938 240.355469 628.675781 241.277344 C 628.136719 242.207031 628.457031 243.390625 629.382812 243.925781 L 743.144531 309.625 C 760.933594 319.871094 775.40625 344.910156 775.40625 365.425781 C 775.320312 374.898438 772.199219 381.90625 766.621094 385.160156 L 759.71875 389.164062 C 761.476562 385.3125 762.421875 380.628906 762.472656 375.296875 C 762.472656 356.296875 750.59375 332.003906 732.523438 318.960938 C 726.78125 314.800781 560.691406 219.238281 559.914062 218.789062 C 555.953125 216.539062 550.84375 214.566406 546.28125 214.113281 C 546.242188 214.113281 546.203125 214.09375 546.167969 214.089844 L 553.15625 210.023438 C 558.804688 206.78125 566.5 207.621094 574.796875 212.402344 L 613.109375 234.523438 C 614.042969 235.070312 615.230469 234.753906 615.753906 233.816406 C 616.292969 232.886719 615.976562 231.703125 615.046875 231.167969 L 576.738281 209.042969 C 567.179688 203.539062 558.121094 202.6875 551.210938 206.664062 C 543.230469 211.320312 542.570312 211.769531 534.421875 216.453125 C 527.535156 220.34375 523.585938 228.757812 523.585938 239.546875 C 523.5 261.355469 538.832031 287.9375 557.753906 298.792969 L 567.796875 304.589844 L 567.648438 342.570312 C 567.648438 345.980469 569.964844 349.117188 572.269531 350.464844 C 573.894531 351.378906 575.9375 351.203125 576.691406 350.765625 L 593.527344 340.910156 C 593.765625 340.773438 594.398438 340.222656 594.535156 340.046875 L 605.386719 326.289062 L 647.085938 350.40625 L 647.117188 355.148438 C 647.125 356.21875 647.992188 357.078125 649.058594 357.078125 C 649.0625 357.078125 649.066406 357.078125 649.070312 357.078125 C 650.140625 357.070312 651.003906 356.195312 650.996094 355.128906 L 650.980469 352.65625 L 666.355469 361.546875 C 667.289062 362.089844 668.46875 361.769531 669.003906 360.839844 C 669.542969 359.910156 669.222656 358.726562 668.296875 358.191406 C 661.277344 354.132812 693.722656 372.902344 599.652344 318.480469 C 598.859375 318.492188 598.132812 317.960938 597.074219 319.03125 C 596.308594 320 573.421875 349.023438 574.859375 347.199219 L 574.757812 347.300781 C 574.742188 347.3125 574.5 347.273438 574.207031 347.105469 C 572.917969 346.351562 571.527344 344.402344 571.527344 342.578125 L 571.679688 303.480469 C 571.683594 302.785156 571.3125 302.140625 570.710938 301.796875 L 559.6875 295.433594 C 541.839844 285.191406 527.386719 260.125 527.460938 239.554688 C 527.460938 220.082031 540.914062 212.332031 557.988281 222.226562 C 558.777344 222.679688 725.160156 318.292969 730.851562 322.507812 C 747.347656 334.773438 758.617188 357.289062 758.554688 375.222656 C 758.484375 394.640625 745.226562 402.605469 728.027344 392.632812 L 683.578125 366.960938 C 682.65625 366.429688 681.464844 366.746094 680.933594 367.667969 C 680.394531 368.597656 680.710938 369.78125 681.640625 370.316406 L 726.085938 395.988281 C 731.625 399.207031 737.011719 400.828125 741.929688 400.828125 C 750.507812 400.828125 753.664062 396.445312 768.574219 388.511719 C 775.378906 384.539062 779.183594 376.355469 779.285156 365.445312 C 779.285156 343.675781 763.941406 317.125 745.085938 306.265625 Z M 745.085938 306.265625 " fill-opacity="1" fill-rule="nonzero"/><path fill="#2f2f2f" d="M 557.761719 161.324219 L 594.605469 182.597656 C 595.539062 183.144531 596.722656 182.824219 597.253906 181.890625 C 597.789062 180.960938 597.472656 179.777344 596.542969 179.242188 L 559.699219 157.96875 C 541.847656 147.660156 527.371094 122.59375 527.433594 102.082031 C 527.488281 82.304688 541.121094 74.960938 557.980469 84.691406 L 726.285156 181.855469 C 744.136719 192.167969 758.613281 217.238281 758.554688 237.75 C 758.5 257.015625 745.308594 265.128906 728.007812 255.136719 L 613.789062 189.199219 C 612.867188 188.671875 611.675781 188.984375 611.140625 189.910156 C 610.605469 190.835938 610.921875 192.023438 611.851562 192.554688 L 726.066406 258.492188 C 731.621094 261.703125 737.023438 263.320312 741.941406 263.320312 C 750.53125 263.320312 753.179688 259.210938 768.574219 251.011719 C 775.378906 247.046875 779.183594 238.863281 779.285156 227.949219 C 779.285156 206.179688 763.941406 179.628906 745.085938 168.769531 L 706.835938 146.679688 C 705.910156 146.144531 704.726562 146.464844 704.1875 147.386719 C 703.652344 148.316406 703.96875 149.5 704.898438 150.035156 L 743.144531 172.128906 C 760.933594 182.375 775.40625 207.414062 775.40625 227.929688 C 775.320312 237.402344 772.199219 244.410156 766.621094 247.660156 L 759.71875 251.664062 C 760.664062 249.59375 762.414062 243.894531 762.472656 237.796875 C 762.472656 215.972656 747.125 189.378906 728.269531 178.519531 L 559.914062 81.289062 C 554.886719 78.425781 549.644531 76.910156 546.1875 76.582031 L 553.15625 72.523438 C 558.804688 69.289062 566.488281 70.128906 574.796875 74.90625 L 687.832031 140.179688 C 688.769531 140.71875 689.953125 140.402344 690.480469 139.472656 C 691.019531 138.542969 690.699219 137.355469 689.773438 136.824219 L 576.738281 71.542969 C 567.179688 66.046875 558.121094 65.1875 551.210938 69.164062 C 547.011719 71.613281 534.5625 78.863281 534.410156 78.953125 C 527.441406 82.839844 523.585938 91.050781 523.554688 102.074219 C 523.488281 123.820312 538.835938 150.402344 557.761719 161.324219 Z M 557.761719 161.324219 " fill-opacity="1" fill-rule="nonzero"/><path fill="#2f2f2f" d="M 537.972656 105.433594 L 537.972656 114.375 C 537.972656 115.449219 538.839844 116.316406 539.914062 116.316406 C 540.984375 116.316406 541.851562 115.449219 541.851562 114.375 L 541.851562 105.433594 C 541.851562 104.363281 540.984375 103.496094 539.914062 103.496094 C 538.839844 103.496094 537.972656 104.363281 537.972656 105.433594 Z M 537.972656 105.433594 " fill-opacity="1" fill-rule="nonzero"/><path fill="#2f2f2f" d="M 586.484375 130.738281 L 586.484375 139.683594 C 586.484375 140.753906 587.351562 141.621094 588.421875 141.621094 C 589.496094 141.621094 590.363281 140.753906 590.363281 139.683594 L 590.363281 130.738281 C 590.363281 129.667969 589.496094 128.800781 588.421875 128.800781 C 587.351562 128.800781 586.484375 129.667969 586.484375 130.738281 Z M 586.484375 130.738281 " fill-opacity="1" fill-rule="nonzero"/><path fill="#2f2f2f" d="M 550.101562 98.96875 L 550.101562 133.824219 C 550.101562 134.894531 550.96875 135.761719 552.042969 135.761719 C 553.113281 135.761719 553.980469 134.894531 553.980469 133.824219 L 553.980469 98.96875 C 553.980469 97.894531 553.113281 97.027344 552.042969 97.027344 C 550.96875 97.027344 550.101562 97.894531 550.101562 98.96875 Z M 550.101562 98.96875 " fill-opacity="1" fill-rule="nonzero"/><path fill="#2f2f2f" d="M 574.355469 111.621094 L 574.355469 146.472656 C 574.355469 147.546875 575.222656 148.414062 576.292969 148.414062 C 577.367188 148.414062 578.234375 147.546875 578.234375 146.472656 L 578.234375 111.621094 C 578.234375 110.546875 577.367188 109.679688 576.292969 109.679688 C 575.222656 109.679688 574.355469 110.546875 574.355469 111.621094 Z M 574.355469 111.621094 " fill-opacity="1" fill-rule="nonzero"/><path fill="#2f2f2f" d="M 562.226562 97.078125 L 562.226562 147.714844 C 562.226562 148.785156 563.09375 149.652344 564.167969 149.652344 C 565.238281 149.652344 566.105469 148.785156 566.105469 147.714844 L 566.105469 97.078125 C 566.105469 96.007812 565.238281 95.136719 564.167969 95.136719 C 563.09375 95.136719 562.226562 96.007812 562.226562 97.078125 Z M 562.226562 97.078125 " fill-opacity="1" fill-rule="nonzero"/><path fill="#2f2f2f" d="M 598.609375 141.265625 L 598.609375 150.210938 C 598.609375 151.28125 599.476562 152.148438 600.546875 152.148438 C 601.621094 152.148438 602.488281 151.28125 602.488281 150.210938 L 602.488281 141.265625 C 602.488281 140.195312 601.621094 139.328125 600.546875 139.328125 C 599.476562 139.328125 598.609375 140.195312 598.609375 141.265625 Z M 598.609375 141.265625 " fill-opacity="1" fill-rule="nonzero"/><path fill="#2f2f2f" d="M 650.996094 175.515625 L 650.996094 166.570312 C 650.996094 165.5 650.128906 164.632812 649.058594 164.632812 C 647.984375 164.632812 647.117188 165.5 647.117188 166.570312 L 647.117188 175.515625 C 647.117188 176.585938 647.984375 177.453125 649.058594 177.453125 C 650.128906 177.453125 650.996094 176.585938 650.996094 175.515625 Z M 650.996094 175.515625 " fill-opacity="1" fill-rule="nonzero"/><path fill="#2f2f2f" d="M 612.675781 171.589844 C 613.75 171.589844 614.617188 170.722656 614.617188 169.652344 L 614.617188 134.800781 C 614.617188 133.726562 613.75 132.859375 612.675781 132.859375 C 611.605469 132.859375 610.738281 133.726562 610.738281 134.800781 L 610.738281 169.652344 C 610.738281 170.722656 611.605469 171.589844 612.675781 171.589844 Z M 612.675781 171.589844 " fill-opacity="1" fill-rule="nonzero"/><path fill="#2f2f2f" d="M 638.867188 182.304688 L 638.867188 147.453125 C 638.867188 146.378906 638 145.511719 636.929688 145.511719 C 635.855469 145.511719 634.988281 146.378906 634.988281 147.453125 L 634.988281 182.304688 C 634.988281 183.378906 635.855469 184.246094 636.929688 184.246094 C 638 184.246094 638.867188 183.378906 638.867188 182.304688 Z M 638.867188 182.304688 " fill-opacity="1" fill-rule="nonzero"/><path fill="#2f2f2f" d="M 626.738281 183.546875 L 626.738281 132.910156 C 626.738281 131.839844 625.871094 130.972656 624.800781 130.972656 C 623.730469 130.972656 622.863281 131.839844 622.863281 132.910156 L 622.863281 183.546875 C 622.863281 184.617188 623.730469 185.484375 624.800781 185.484375 C 625.871094 185.484375 626.738281 184.617188 626.738281 183.546875 Z M 626.738281 183.546875 " fill-opacity="1" fill-rule="nonzero"/><path fill="#2f2f2f" d="M 663.121094 186.042969 L 663.121094 177.097656 C 663.121094 176.027344 662.253906 175.160156 661.183594 175.160156 C 660.109375 175.160156 659.242188 176.027344 659.242188 177.097656 L 659.242188 186.042969 C 659.242188 187.113281 660.109375 187.980469 661.183594 187.980469 C 662.253906 187.980469 663.121094 187.113281 663.121094 186.042969 Z M 663.121094 186.042969 " fill-opacity="1" fill-rule="nonzero"/><path fill="#2f2f2f" d="M 711.632812 211.347656 L 711.632812 202.40625 C 711.632812 201.332031 710.765625 200.464844 709.691406 200.464844 C 708.621094 200.464844 707.753906 201.332031 707.753906 202.40625 L 707.753906 211.347656 C 707.753906 212.417969 708.621094 213.285156 709.691406 213.285156 C 710.765625 213.285156 711.632812 212.417969 711.632812 211.347656 Z M 711.632812 211.347656 " fill-opacity="1" fill-rule="nonzero"/><path fill="#2f2f2f" d="M 675.25 205.484375 L 675.25 170.632812 C 675.25 169.5625 674.382812 168.691406 673.3125 168.691406 C 672.238281 168.691406 671.371094 169.5625 671.371094 170.632812 L 671.371094 205.484375 C 671.371094 206.554688 672.238281 207.421875 673.3125 207.421875 C 674.382812 207.421875 675.25 206.554688 675.25 205.484375 Z M 675.25 205.484375 " fill-opacity="1" fill-rule="nonzero"/><path fill="#2f2f2f" d="M 699.503906 218.140625 L 699.503906 183.285156 C 699.503906 182.210938 698.636719 181.34375 697.5625 181.34375 C 696.492188 181.34375 695.625 182.210938 695.625 183.285156 L 695.625 218.140625 C 695.625 219.210938 696.492188 220.078125 697.5625 220.078125 C 698.636719 220.078125 699.503906 219.210938 699.503906 218.140625 Z M 699.503906 218.140625 " fill-opacity="1" fill-rule="nonzero"/><path fill="#2f2f2f" d="M 687.378906 219.378906 L 687.378906 168.742188 C 687.378906 167.671875 686.511719 166.804688 685.4375 166.804688 C 684.367188 166.804688 683.5 167.671875 683.5 168.742188 L 683.5 219.378906 C 683.5 220.449219 684.367188 221.316406 685.4375 221.316406 C 686.511719 221.316406 687.378906 220.449219 687.378906 219.378906 Z M 687.378906 219.378906 " fill-opacity="1" fill-rule="nonzero"/><path fill="#2f2f2f" d="M 748.011719 234.675781 L 748.011719 225.738281 C 748.011719 224.664062 747.144531 223.796875 746.074219 223.796875 C 745 223.796875 744.132812 224.664062 744.132812 225.738281 L 744.132812 234.675781 C 744.132812 235.75 745 236.617188 746.074219 236.617188 C 747.144531 236.617188 748.011719 235.75 748.011719 234.675781 Z M 748.011719 234.675781 " fill-opacity="1" fill-rule="nonzero"/><path fill="#2f2f2f" d="M 735.882812 241.46875 L 735.882812 206.617188 C 735.882812 205.542969 735.015625 204.675781 733.945312 204.675781 C 732.875 204.675781 732.007812 205.542969 732.007812 206.617188 L 732.007812 241.46875 C 732.007812 242.539062 732.875 243.40625 733.945312 243.40625 C 735.015625 243.40625 735.882812 242.539062 735.882812 241.46875 Z M 735.882812 241.46875 " fill-opacity="1" fill-rule="nonzero"/><path fill="#2f2f2f" d="M 723.761719 242.707031 L 723.761719 192.070312 C 723.761719 191 722.894531 190.132812 721.820312 190.132812 C 720.75 190.132812 719.882812 191 719.882812 192.070312 L 719.882812 242.707031 C 719.882812 243.777344 720.75 244.644531 721.820312 244.644531 C 722.894531 244.644531 723.761719 243.777344 723.761719 242.707031 Z M 723.761719 242.707031 " fill-opacity="1" fill-rule="nonzero"/><path fill="#2f2f2f" d="M 537.972656 242.933594 L 537.972656 251.875 C 537.972656 252.949219 538.839844 253.816406 539.914062 253.816406 C 540.984375 253.816406 541.851562 252.949219 541.851562 251.875 L 541.851562 242.933594 C 541.851562 241.863281 540.984375 240.996094 539.914062 240.996094 C 538.839844 240.996094 537.972656 241.863281 537.972656 242.933594 Z M 537.972656 242.933594 " fill-opacity="1" fill-rule="nonzero"/><path fill="#2f2f2f" d="M 586.484375 268.238281 L 586.484375 277.183594 C 586.484375 278.253906 587.351562 279.121094 588.421875 279.121094 C 589.496094 279.121094 590.363281 278.253906 590.363281 277.183594 L 590.363281 268.238281 C 590.363281 267.167969 589.496094 266.300781 588.421875 266.300781 C 587.351562 266.300781 586.484375 267.167969 586.484375 268.238281 Z M 586.484375 268.238281 " fill-opacity="1" fill-rule="nonzero"/><path fill="#2f2f2f" d="M 550.101562 236.46875 L 550.101562 271.320312 C 550.101562 272.390625 550.96875 273.257812 552.042969 273.257812 C 553.113281 273.257812 553.980469 272.390625 553.980469 271.320312 L 553.980469 236.46875 C 553.980469 235.394531 553.113281 234.527344 552.042969 234.527344 C 550.96875 234.527344 550.101562 235.394531 550.101562 236.46875 Z M 550.101562 236.46875 " fill-opacity="1" fill-rule="nonzero"/><path fill="#2f2f2f" d="M 574.355469 249.117188 L 574.355469 283.972656 C 574.355469 285.046875 575.222656 285.914062 576.292969 285.914062 C 577.367188 285.914062 578.234375 285.046875 578.234375 283.972656 L 578.234375 249.117188 C 578.234375 248.046875 577.367188 247.179688 576.292969 247.179688 C 575.222656 247.179688 574.355469 248.046875 574.355469 249.117188 Z M 574.355469 249.117188 " fill-opacity="1" fill-rule="nonzero"/><path fill="#2f2f2f" d="M 562.226562 234.578125 L 562.226562 285.210938 C 562.226562 286.285156 563.09375 287.152344 564.167969 287.152344 C 565.238281 287.152344 566.105469 286.285156 566.105469 285.210938 L 566.105469 234.578125 C 566.105469 233.503906 565.238281 232.636719 564.167969 232.636719 C 563.09375 232.636719 562.226562 233.503906 562.226562 234.578125 Z M 562.226562 234.578125 " fill-opacity="1" fill-rule="nonzero"/><path fill="#2f2f2f" d="M 598.609375 278.765625 L 598.609375 287.707031 C 598.609375 288.78125 599.476562 289.648438 600.546875 289.648438 C 601.621094 289.648438 602.488281 288.78125 602.488281 287.707031 L 602.488281 278.765625 C 602.488281 277.695312 601.621094 276.828125 600.546875 276.828125 C 599.476562 276.828125 598.609375 277.695312 598.609375 278.765625 Z M 598.609375 278.765625 " fill-opacity="1" fill-rule="nonzero"/><path fill="#2f2f2f" d="M 647.117188 304.070312 L 647.117188 313.015625 C 647.117188 314.085938 647.984375 314.953125 649.058594 314.953125 C 650.128906 314.953125 650.996094 314.085938 650.996094 313.015625 L 650.996094 304.070312 C 650.996094 303 650.128906 302.132812 649.058594 302.132812 C 647.984375 302.132812 647.117188 303 647.117188 304.070312 Z M 647.117188 304.070312 " fill-opacity="1" fill-rule="nonzero"/><path fill="#2f2f2f" d="M 610.738281 272.296875 L 610.738281 307.152344 C 610.738281 308.222656 611.605469 309.089844 612.675781 309.089844 C 613.75 309.089844 614.617188 308.222656 614.617188 307.152344 L 614.617188 272.296875 C 614.617188 271.222656 613.75 270.355469 612.675781 270.355469 C 611.605469 270.355469 610.738281 271.222656 610.738281 272.296875 Z M 610.738281 272.296875 " fill-opacity="1" fill-rule="nonzero"/><path fill="#2f2f2f" d="M 634.988281 284.953125 L 634.988281 319.804688 C 634.988281 320.878906 635.855469 321.746094 636.929688 321.746094 C 638 321.746094 638.867188 320.878906 638.867188 319.804688 L 638.867188 284.953125 C 638.867188 283.878906 638 283.011719 636.929688 283.011719 C 635.855469 283.011719 634.988281 283.878906 634.988281 284.953125 Z M 634.988281 284.953125 " fill-opacity="1" fill-rule="nonzero"/><path fill="#2f2f2f" d="M 622.863281 270.410156 L 622.863281 321.046875 C 622.863281 322.117188 623.730469 322.984375 624.800781 322.984375 C 625.871094 322.984375 626.738281 322.117188 626.738281 321.046875 L 626.738281 270.410156 C 626.738281 269.339844 625.871094 268.472656 624.800781 268.472656 C 623.730469 268.472656 622.863281 269.339844 622.863281 270.410156 Z M 622.863281 270.410156 " fill-opacity="1" fill-rule="nonzero"/><path fill="#2f2f2f" d="M 659.242188 314.597656 L 659.242188 323.542969 C 659.242188 324.613281 660.109375 325.480469 661.183594 325.480469 C 662.253906 325.480469 663.121094 324.613281 663.121094 323.542969 L 663.121094 314.597656 C 663.121094 313.527344 662.253906 312.660156 661.183594 312.660156 C 660.109375 312.660156 659.242188 313.527344 659.242188 314.597656 Z M 659.242188 314.597656 " fill-opacity="1" fill-rule="nonzero"/><path fill="#2f2f2f" d="M 711.632812 348.84375 L 711.632812 339.902344 C 711.632812 338.832031 710.765625 337.964844 709.691406 337.964844 C 708.621094 337.964844 707.753906 338.832031 707.753906 339.902344 L 707.753906 348.84375 C 707.753906 349.914062 708.621094 350.78125 709.691406 350.78125 C 710.765625 350.78125 711.632812 349.914062 711.632812 348.84375 Z M 711.632812 348.84375 " fill-opacity="1" fill-rule="nonzero"/><path fill="#2f2f2f" d="M 675.25 342.984375 L 675.25 308.128906 C 675.25 307.058594 674.382812 306.1875 673.3125 306.1875 C 672.238281 306.1875 671.371094 307.058594 671.371094 308.128906 L 671.371094 342.984375 C 671.371094 344.054688 672.238281 344.921875 673.3125 344.921875 C 674.382812 344.921875 675.25 344.054688 675.25 342.984375 Z M 675.25 342.984375 " fill-opacity="1" fill-rule="nonzero"/><path fill="#2f2f2f" d="M 699.503906 355.636719 L 699.503906 320.785156 C 699.503906 319.710938 698.636719 318.84375 697.5625 318.84375 C 696.492188 318.84375 695.625 319.710938 695.625 320.785156 L 695.625 355.636719 C 695.625 356.710938 696.492188 357.578125 697.5625 357.578125 C 698.636719 357.578125 699.503906 356.710938 699.503906 355.636719 Z M 699.503906 355.636719 " fill-opacity="1" fill-rule="nonzero"/><path fill="#2f2f2f" d="M 685.4375 358.8125 C 686.511719 358.8125 687.378906 357.945312 687.378906 356.875 L 687.378906 306.238281 C 687.378906 305.167969 686.511719 304.300781 685.4375 304.300781 C 684.367188 304.300781 683.5 305.167969 683.5 306.238281 L 683.5 356.875 C 683.5 357.945312 684.367188 358.8125 685.4375 358.8125 Z M 685.4375 358.8125 " fill-opacity="1" fill-rule="nonzero"/><path fill="#2f2f2f" d="M 748.011719 372.175781 L 748.011719 363.234375 C 748.011719 362.160156 747.144531 361.292969 746.074219 361.292969 C 745 361.292969 744.132812 362.160156 744.132812 363.234375 L 744.132812 372.175781 C 744.132812 373.246094 745 374.117188 746.074219 374.117188 C 747.144531 374.117188 748.011719 373.246094 748.011719 372.175781 Z M 748.011719 372.175781 " fill-opacity="1" fill-rule="nonzero"/><path fill="#2f2f2f" d="M 735.882812 378.96875 L 735.882812 344.113281 C 735.882812 343.039062 735.015625 342.171875 733.945312 342.171875 C 732.875 342.171875 732.007812 343.039062 732.007812 344.113281 L 732.007812 378.96875 C 732.007812 380.039062 732.875 380.90625 733.945312 380.90625 C 735.015625 380.90625 735.882812 380.039062 735.882812 378.96875 Z M 735.882812 378.96875 " fill-opacity="1" fill-rule="nonzero"/><path fill="#2f2f2f" d="M 723.761719 380.207031 L 723.761719 329.570312 C 723.761719 328.5 722.894531 327.632812 721.820312 327.632812 C 720.75 327.632812 719.882812 328.5 719.882812 329.570312 L 719.882812 380.207031 C 719.882812 381.277344 720.75 382.144531 721.820312 382.144531 C 722.894531 382.144531 723.761719 381.277344 723.761719 380.207031 Z M 723.761719 380.207031 " fill-opacity="1" fill-rule="nonzero"/><path fill="#2f2f2f" d="M 182.800781 294.902344 C 182.042969 294.144531 180.816406 294.144531 180.058594 294.902344 L 171.460938 303.5 L 162.863281 294.898438 C 162.105469 294.140625 160.878906 294.140625 160.121094 294.898438 C 159.363281 295.65625 159.363281 296.882812 160.121094 297.640625 L 168.71875 306.238281 L 160.117188 314.835938 C 159.359375 315.59375 159.359375 316.820312 160.117188 317.578125 C 160.875 318.335938 162.101562 318.335938 162.859375 317.578125 L 171.460938 308.984375 L 180.054688 317.582031 C 180.8125 318.339844 182.042969 318.339844 182.796875 317.582031 C 183.554688 316.824219 183.554688 315.597656 182.796875 314.839844 L 174.203125 306.242188 L 182.800781 297.644531 C 183.558594 296.886719 183.558594 295.660156 182.800781 294.902344 Z M 182.800781 294.902344 " fill-opacity="1" fill-rule="nonzero"/><path fill="#2f2f2f" d="M 435.585938 156.660156 C 436.230469 159.144531 439.984375 158.199219 439.34375 155.691406 C 438.054688 150.703125 435.996094 145.578125 433.046875 140.019531 C 432.542969 139.078125 431.367188 138.707031 430.425781 139.21875 C 429.476562 139.71875 429.117188 140.890625 429.621094 141.839844 C 432.425781 147.121094 434.378906 151.96875 435.585938 156.660156 Z M 435.585938 156.660156 " fill-opacity="1" fill-rule="nonzero"/><path fill="#2f2f2f" d="M 376.257812 105.546875 C 393.023438 107.277344 408.574219 115.246094 420.042969 127.992188 C 420.777344 128.808594 422.007812 128.84375 422.78125 128.140625 C 423.578125 127.421875 423.644531 126.199219 422.929688 125.402344 C 410.8125 111.9375 394.378906 103.515625 376.660156 101.691406 C 375.609375 101.546875 374.640625 102.355469 374.53125 103.417969 C 374.421875 104.488281 375.195312 105.4375 376.257812 105.546875 Z M 376.257812 105.546875 " fill-opacity="1" fill-rule="nonzero"/></svg>